<svg width="30" height="30" fill="none" xmlns="http://www.w3.org/2000/svg"><path d="M7.031 11.484c0 4.383 3.586 7.97 7.969 7.97 4.383 0 7.969-3.587 7.969-7.97 0-4.382-3.586-7.968-7.969-7.968-4.383 0-7.969 3.586-7.969 7.968zm14.063 0c0 3.352-2.742 6.094-6.094 6.094-3.352 0-6.094-2.742-6.094-6.094 0-3.351 2.742-6.093 6.094-6.093 3.352 0 6.094 2.742 6.094 6.093zm-15.375 16.5A13.01 13.01 0 0115 24.141a13.01 13.01 0 019.281 3.843l1.336-1.336A15.005 15.005 0 0015 22.266c-4.008 0-7.781 1.57-10.617 4.382l1.336 1.336z" fill="#fff"/></svg>