<svg width="25" height="24" fill="none" xmlns="http://www.w3.org/2000/svg"><path fill-rule="evenodd" clip-rule="evenodd" d="M8.129 4.27a.75.75 0 01.808.333l1.03 1.647h4.172l1.03-1.647a.75.75 0 01.809-.333l4.253 1a.75.75 0 01.54.493l1.527 4.577c.282.848.45 1.729.498 2.62a.75.75 0 01-1.499.08 8.485 8.485 0 00-.424-2.226l-1.394-4.18-3.322-.78-.966 1.544a.75.75 0 01-.636.352H9.55a.75.75 0 01-.636-.352l-.966-1.545-3.322.781-1.33 3.987a9.744 9.744 0 00-.5 3.083v3.788l4.072 1.628 1.651-1.65a.75.75 0 01.531-.22h6.004c.2 0 .39.08.53.22l1.652 1.65 4.073-1.628V17a.75.75 0 011.5 0v1a.75.75 0 01-.471.696l-5.004 2a.75.75 0 01-.809-.166l-1.782-1.78H9.362L7.58 20.53a.75.75 0 01-.81.166l-5.003-2A.75.75 0 011.295 18v-4.296c0-1.21.195-2.41.578-3.558l1.462-4.383a.75.75 0 01.54-.493l4.254-1z" fill="url(#paint0_linear_109_70)"/><path fill-rule="evenodd" clip-rule="evenodd" d="M15.556 12.25a.75.75 0 100 1.5.75.75 0 000-1.5zm-2.252.75a2.25 2.25 0 114.502.002A2.25 2.25 0 0113.304 13z" fill="url(#paint1_linear_109_70)"/><path fill-rule="evenodd" clip-rule="evenodd" d="M8.55 12.25a.75.75 0 100 1.5.75.75 0 000-1.5zM6.3 13a2.25 2.25 0 114.501.002A2.25 2.25 0 016.3 13z" fill="url(#paint2_linear_109_70)"/><defs><linearGradient id="paint0_linear_109_70" x1="1" y1="4" x2="23" y2="21" gradientUnits="userSpaceOnUse"><stop stop-color="#F12424"/><stop offset="1" stop-color="#2F2A2A"/></linearGradient><linearGradient id="paint1_linear_109_70" x1="15.556" y1="10.75" x2="15.556" y2="15.25" gradientUnits="userSpaceOnUse"><stop stop-color="#F12424"/><stop offset="1" stop-color="#2F2A2A"/></linearGradient><linearGradient id="paint2_linear_109_70" x1="8.55" y1="10.75" x2="8.55" y2="15.25" gradientUnits="userSpaceOnUse"><stop stop-color="#F12424"/><stop offset="1" stop-color="#2F2A2A"/></linearGradient></defs></svg>