<svg width="27" height="26" viewBox="0 0 27 26" fill="none" xmlns="http://www.w3.org/2000/svg">
<path d="M20.0045 26H7.07362C4.05108 26 2.9902 24.4487 2.9902 22.9975V14.9908H2.66993C2.15509 14.9884 1.6518 14.8379 1.22017 14.5573C0.788537 14.2766 0.446791 13.8777 0.235736 13.4081C0.0246806 12.9385 -0.0467651 12.4181 0.0299287 11.909C0.106623 11.3999 0.328215 10.9236 0.668249 10.537L7.85427 2.33016C8.4986 1.59794 9.29155 1.01139 10.1803 0.609604C11.0691 0.207815 12.0332 0 13.0086 0C13.9839 0 14.9481 0.207815 15.8369 0.609604C16.7256 1.01139 17.5186 1.59794 18.1629 2.33016L25.3489 10.537C25.6945 10.9208 25.9196 11.3978 25.9962 11.9085C26.0727 12.4193 25.9973 12.9412 25.7793 13.4094C25.5689 13.8831 25.2248 14.285 24.7892 14.5659C24.3536 14.8468 23.8455 14.9945 23.3272 14.9908H23.007V22.9975C23.007 23.7938 22.6906 24.5575 22.1276 25.1206C21.5645 25.6837 20.8008 26 20.0045 26ZM12.9986 1.97987C12.3073 1.97974 11.6239 2.12695 10.994 2.41171C10.3641 2.69646 9.80211 3.11222 9.34552 3.63126L2.1595 11.8381C2.06617 11.9356 2.00394 12.0586 1.98069 12.1916C1.95745 12.3245 1.97424 12.4613 2.02895 12.5847C2.08366 12.7081 2.17381 12.8124 2.28794 12.8844C2.40207 12.9564 2.53503 12.9928 2.66993 12.9891H3.99103C4.25647 12.9891 4.51104 13.0945 4.69873 13.2822C4.88643 13.4699 4.99187 13.7245 4.99187 13.9899V22.9975C4.99187 23.8682 6.30297 23.9983 7.08363 23.9983H20.0045C20.2699 23.9983 20.5245 23.8929 20.7122 23.7052C20.8998 23.5175 21.0053 23.2629 21.0053 22.9975V13.9899C21.0058 13.8575 21.0327 13.7265 21.0842 13.6045C21.1357 13.4826 21.211 13.372 21.3055 13.2793C21.492 13.0944 21.7436 12.9902 22.0061 12.9891H23.3172C23.4482 12.9891 23.5765 12.9514 23.6866 12.8803C23.7966 12.8092 23.8838 12.7079 23.9377 12.5885C23.9916 12.4691 24.0099 12.3366 23.9904 12.2071C23.9709 12.0775 23.9144 11.9564 23.8277 11.8581L16.6416 3.65127C16.1884 3.12935 15.629 2.71024 15.0007 2.42199C14.3724 2.13375 13.6898 1.98301 12.9986 1.97987Z" fill="#F4F8F7"/>
<path d="M15.001 26.0001H8.99596C8.73052 26.0001 8.47595 25.8946 8.28826 25.7069C8.10056 25.5192 7.99512 25.2647 7.99512 24.9992V17.9933C7.99512 16.9316 8.4169 15.9133 9.16767 15.1625C9.91845 14.4118 10.9367 13.99 11.9985 13.99C13.0602 13.99 14.0785 14.4118 14.8293 15.1625C15.58 15.9133 16.0018 16.9316 16.0018 17.9933V24.9992C16.0018 25.2647 15.8964 25.5192 15.7087 25.7069C15.521 25.8946 15.2664 26.0001 15.001 26.0001ZM9.99679 23.9984H14.0001V17.9933C14.0001 17.4625 13.7893 16.9533 13.4139 16.5779C13.0385 16.2026 12.5293 15.9917 11.9985 15.9917C11.4676 15.9917 10.9585 16.2026 10.5831 16.5779C10.2077 16.9533 9.99679 17.4625 9.99679 17.9933V23.9984Z" fill="#F4F8F7"/>
</svg>
