<svg width="27" height="26" viewBox="0 0 27 26" fill="none" xmlns="http://www.w3.org/2000/svg">
<path d="M26.3108 5.10758C26.3108 2.28694 24.0228 0 21.2002 0H5.40287C2.58021 0 0.292236 2.28694 0.292236 5.10758V20.8924C0.292236 23.7131 2.58021 26 5.40287 26H21.2002C24.0228 26 26.3108 23.7131 26.3108 20.8924V5.10758ZM24.3094 20.8924C24.3094 22.4077 22.8236 24 21.3072 24H5.40287C3.88647 24 2.29366 22.4077 2.29366 20.8924V5.10758C2.29366 3.59225 3.88647 2 5.40287 2H21.2002C22.7166 2 24.3094 3.59225 24.3094 5.10758V20.8924ZM16.9234 20.0909C16.9234 20.7435 16.3944 21.2727 15.7408 21.2727H11.0101C10.3565 21.2727 9.82745 20.7435 9.82745 20.0909C9.82745 19.4383 10.3565 18.9091 11.0101 18.9091H12.1189V11.8182H11.0101C10.3565 11.8182 9.82745 11.289 9.82745 10.6364C9.82745 9.98376 10.3565 9.45455 11.0101 9.45455H14.4842V18.9091H15.7408C16.3944 18.9091 16.9234 19.4383 16.9234 20.0909ZM11.5275 6.57386C11.5275 5.59461 12.3222 4.80114 13.3015 4.80114C14.2809 4.80114 15.0755 5.59461 15.0755 6.57386C15.0755 7.55312 14.2809 8.34659 13.3015 8.34659C12.3222 8.34659 11.5275 7.55312 11.5275 6.57386Z" fill="white"/>
</svg>
