<svg width="31" height="30" viewBox="0 0 31 30" fill="none" xmlns="http://www.w3.org/2000/svg">
<path d="M28.7392 15C28.7392 13.1541 27.3967 11.6147 25.6367 11.3063L25.3111 10.5234C26.3384 9.06094 26.1977 7.02562 24.8918 5.71969C23.629 4.45781 21.5153 4.29375 20.0837 5.29969L19.3003 4.97531C18.9916 3.21656 17.4521 1.875 15.6048 1.875C13.7576 1.875 12.2171 3.21656 11.9084 4.97531L11.1251 5.29969C9.66341 4.275 7.62476 4.41375 6.31789 5.71969C5.60864 6.4275 5.21836 7.36969 5.21836 8.37188C5.21836 9.15281 5.45571 9.89812 5.89759 10.5244L5.57299 11.3063C3.81204 11.6147 2.47046 13.1541 2.47046 15C2.47046 16.8469 3.81298 18.3853 5.57299 18.6938L5.89759 19.4756C4.87124 20.9391 5.01102 22.9744 6.31789 24.2803C7.57879 25.5413 9.69624 25.7062 11.126 24.7003L11.9094 25.0247C12.218 26.7834 13.7585 28.125 15.6058 28.125C17.454 28.125 18.9935 26.7834 19.3012 25.0247L20.0846 24.6994C21.5472 25.7259 23.584 25.5872 24.8927 24.2803C25.602 23.5716 25.9922 22.6303 25.9922 21.6281C25.9922 20.8472 25.754 20.1019 25.313 19.4756L25.6376 18.6938C27.3967 18.3862 28.7392 16.8478 28.7392 15C28.7392 15.0009 28.7392 15.0009 28.7392 15ZM24.9865 16.8769C24.6075 16.8769 24.2651 17.1047 24.1197 17.4553L23.3616 19.2816C23.2162 19.6322 23.2969 20.0353 23.5652 20.3034C23.9198 20.6578 24.115 21.1284 24.115 21.6291C24.115 22.1306 23.9198 22.6012 23.5652 22.9556C22.8334 23.6869 21.641 23.685 20.9111 22.9556C20.6428 22.6875 20.2394 22.6069 19.8885 22.7522L18.06 23.5097C17.7091 23.655 17.4812 23.9972 17.4812 24.3759C17.4812 25.41 16.6396 26.2509 15.6048 26.2509C14.57 26.2509 13.7285 25.41 13.7285 24.3759C13.7285 23.9972 13.4996 23.6541 13.1496 23.5097L11.3202 22.7522C10.9684 22.6069 10.5669 22.6875 10.2976 22.9556C9.58835 23.6644 8.35372 23.6644 7.64446 22.9556C6.91269 22.2244 6.91269 21.0347 7.64446 20.3034C7.91278 20.0353 7.99346 19.6322 7.84805 19.2816L7.09001 17.4553C6.94459 17.1047 6.60216 16.8769 6.22314 16.8769C5.18834 16.8769 4.3468 16.0359 4.3468 15.0009C4.3468 13.9669 5.18834 13.1259 6.22314 13.1259C6.60216 13.1259 6.94459 12.8972 7.09001 12.5475L7.84805 10.7194C7.99346 10.3687 7.91278 9.96562 7.64446 9.6975C7.28984 9.34312 7.0947 8.8725 7.0947 8.37188C7.0947 7.87125 7.28984 7.39969 7.64446 7.04531C8.37624 6.31406 9.56677 6.31406 10.2985 7.04531C10.5669 7.31344 10.9703 7.39219 11.3212 7.24875L13.1496 6.49125C13.4996 6.34594 13.7285 6.00375 13.7285 5.625C13.7285 4.59094 14.57 3.75 15.6048 3.75C16.6396 3.75 17.4812 4.59094 17.4812 5.625C17.4812 6.00375 17.7101 6.34594 18.06 6.49125L19.8895 7.24875C20.2403 7.39313 20.6437 7.31437 20.9121 7.04531C21.6213 6.33656 22.8559 6.33656 23.5652 7.04531C24.296 7.77656 24.296 8.96625 23.5652 9.6975C23.2969 9.96562 23.2162 10.3687 23.3616 10.7194L24.1197 12.5475C24.2641 12.8962 24.6075 13.125 24.9865 13.125C26.0213 13.125 26.8629 13.9659 26.8629 15C26.8629 16.035 26.0213 16.8769 24.9865 16.8769Z" fill="white"/>
<path d="M15.6049 10.3125C13.0184 10.3125 10.9141 12.4153 10.9141 15C10.9141 17.5847 13.0184 19.6875 15.6049 19.6875C16.1228 19.6875 16.5431 19.2684 16.5431 18.75C16.5431 18.2316 16.1228 17.8125 15.6049 17.8125C14.0532 17.8125 12.7904 16.5506 12.7904 15C12.7904 13.4494 14.0532 12.1875 15.6049 12.1875C17.1566 12.1875 18.4194 13.4494 18.4194 15C18.4194 15.5456 18.2637 16.0744 17.9682 16.53C17.6858 16.9641 17.8096 17.5444 18.2449 17.8266C18.6793 18.1087 19.26 17.9859 19.5424 17.55C20.0349 16.7906 20.2958 15.9084 20.2958 15C20.2958 12.4153 18.1914 10.3125 15.6049 10.3125Z" fill="white"/>
</svg>
