<svg width="29" height="29" viewBox="0 0 29 29" fill="none" xmlns="http://www.w3.org/2000/svg">
<path d="M14.2793 27.875C21.4641 27.875 27.2886 22.0547 27.2886 14.875C27.2886 7.6953 21.4641 1.875 14.2793 1.875C7.09448 1.875 1.27002 7.6953 1.27002 14.875C1.27002 22.0547 7.09448 27.875 14.2793 27.875Z" stroke="white" stroke-width="2" stroke-miterlimit="10"/>
<path d="M19.5664 26.7467C19.3645 22.9766 18.6325 19.2537 17.392 15.6874C16.8769 14.2085 16.2558 12.7686 15.5335 11.3789C13.9499 8.1715 11.7195 5.32617 8.98242 3.02173" stroke="white" stroke-width="2" stroke-miterlimit="10"/>
<path d="M24.0363 6.27173C22.1778 8.3053 19.1996 10.1207 15.557 11.3789C14.0796 11.8935 12.5652 12.2955 11.027 12.5814C7.85945 13.2095 4.60976 13.3099 1.40942 12.8785" stroke="white" stroke-width="2" stroke-miterlimit="10"/>
<path d="M5.73486 24.676C6.52471 20.892 11.1569 17.2474 17.3875 15.6874C17.8521 15.562 18.3167 15.4599 18.8231 15.3717C21.614 14.8152 24.4834 14.7758 27.2885 15.2556" stroke="white" stroke-width="2" stroke-miterlimit="10"/>
</svg>
