<svg width="25" height="24" viewBox="0 0 25 24" fill="none" xmlns="http://www.w3.org/2000/svg">
<path fill-rule="evenodd" clip-rule="evenodd" d="M8.12851 4.26998C8.44143 4.19641 8.76648 4.33014 8.93686 4.60255L9.96729 6.25005H14.1389L15.1693 4.60255C15.3397 4.33014 15.6648 4.19641 15.9777 4.26998L20.2307 5.26998C20.4841 5.32956 20.6886 5.5161 20.7708 5.76288L22.2976 10.3399C22.5804 11.1877 22.7478 12.0688 22.7962 12.9595C22.8186 13.3731 22.5011 13.7266 22.0873 13.749C21.6734 13.7714 21.3197 13.4543 21.2973 13.0407C21.2563 12.2836 21.1139 11.5348 20.8735 10.8142L19.4792 6.63425L16.1572 5.85317L15.1913 7.39755C15.0541 7.61683 14.8137 7.75005 14.5549 7.75005H9.5513C9.29253 7.75005 9.05201 7.61683 8.91485 7.39755L7.94893 5.85317L4.62696 6.63425L3.29718 10.6208C2.96555 11.615 2.79648 12.6561 2.79648 13.704V17.4923L6.86876 19.1201L8.52024 17.4698C8.66099 17.3291 8.85189 17.2501 9.05095 17.2501H15.0552C15.2543 17.2501 15.4452 17.3291 15.5859 17.4698L17.2374 19.1201L21.3097 17.4923V17.0001C21.3097 16.5859 21.6457 16.2501 22.0602 16.2501C22.4747 16.2501 22.8108 16.5859 22.8108 17.0001V18.0001C22.8108 18.3068 22.6239 18.5825 22.3389 18.6964L17.3354 20.6964C17.0567 20.8079 16.7382 20.7426 16.526 20.5304L14.7443 18.7501H9.36183L7.58023 20.5304C7.36792 20.7426 7.04954 20.8079 6.77078 20.6964L1.76721 18.6964C1.48225 18.5825 1.29541 18.3068 1.29541 18.0001V13.704C1.29541 12.4948 1.49049 11.2936 1.87313 10.1464L3.33536 5.76288C3.41768 5.5161 3.62208 5.32956 3.87547 5.26998L8.12851 4.26998Z" fill="url(#paint0_linear_109_70)"/>
<path fill-rule="evenodd" clip-rule="evenodd" d="M15.5556 12.25C15.1411 12.25 14.805 12.5858 14.805 13C14.805 13.4142 15.1411 13.75 15.5556 13.75C15.9701 13.75 16.3061 13.4142 16.3061 13C16.3061 12.5858 15.9701 12.25 15.5556 12.25ZM13.304 13C13.304 11.7574 14.3121 10.75 15.5556 10.75C16.799 10.75 17.8072 11.7574 17.8072 13C17.8072 14.2426 16.799 15.25 15.5556 15.25C14.3121 15.25 13.304 14.2426 13.304 13Z" fill="url(#paint1_linear_109_70)"/>
<path fill-rule="evenodd" clip-rule="evenodd" d="M8.55044 12.25C8.13593 12.25 7.7999 12.5858 7.7999 13C7.7999 13.4142 8.13593 13.75 8.55044 13.75C8.96494 13.75 9.30097 13.4142 9.30097 13C9.30097 12.5858 8.96494 12.25 8.55044 12.25ZM6.29883 13C6.29883 11.7574 7.30691 10.75 8.55044 10.75C9.79396 10.75 10.802 11.7574 10.802 13C10.802 14.2426 9.79396 15.25 8.55044 15.25C7.30691 15.25 6.29883 14.2426 6.29883 13Z" fill="url(#paint2_linear_109_70)"/>
<defs>
<linearGradient id="paint0_linear_109_70" x1="1" y1="4" x2="23" y2="21" gradientUnits="userSpaceOnUse">
<stop stop-color="#F12424"/>
<stop offset="1" stop-color="#2F2A2A"/>
</linearGradient>
<linearGradient id="paint1_linear_109_70" x1="15.5556" y1="10.75" x2="15.5556" y2="15.25" gradientUnits="userSpaceOnUse">
<stop stop-color="#F12424"/>
<stop offset="1" stop-color="#2F2A2A"/>
</linearGradient>
<linearGradient id="paint2_linear_109_70" x1="8.55044" y1="10.75" x2="8.55044" y2="15.25" gradientUnits="userSpaceOnUse">
<stop stop-color="#F12424"/>
<stop offset="1" stop-color="#2F2A2A"/>
</linearGradient>
</defs>
</svg>
