<svg width="23" height="22" viewBox="0 0 23 22" fill="none" xmlns="http://www.w3.org/2000/svg">
<g clip-path="url(#clip0_103_14)">
<path d="M21.5392 17.6387L15.2028 12.2229L21.81 4.25144C21.9616 4.06857 22.0342 3.83304 22.012 3.59664C21.9897 3.36025 21.8744 3.14236 21.6914 2.99092C21.5085 2.83947 21.2727 2.76687 21.0362 2.78909C20.7996 2.8113 20.5816 2.92652 20.43 3.10938L13.2606 11.7596C13.2251 11.8025 13.1937 11.8487 13.1669 11.8975V3.68065C13.1669 3.44322 13.0725 3.21552 12.9045 3.04764C12.7365 2.87975 12.5086 2.78543 12.2711 2.78543H11.1339C10.8963 2.78543 10.6685 2.87975 10.5004 3.04764C10.3324 3.21552 10.2381 3.44322 10.2381 3.68065C10.2381 3.91808 10.3324 4.14578 10.5004 4.31366C10.6685 4.48155 10.8963 4.57587 11.1339 4.57587H11.3752V15.7067L1.60356 3.13135C1.4575 2.94484 1.24343 2.82376 1.00823 2.79464C0.773023 2.76551 0.535855 2.83071 0.348654 2.97595C0.161453 3.12119 0.0394745 3.33465 0.00942878 3.56957C-0.0206169 3.80449 0.0437184 4.04174 0.188347 4.22936L11.5633 18.8679C11.6778 19.0154 11.8356 19.1234 12.0146 19.1768C12.1935 19.2302 12.3847 19.2264 12.5614 19.1659C12.7381 19.1054 12.8914 18.9912 12.9999 18.8394C13.1084 18.6875 13.1668 18.5056 13.1668 18.319V12.7627C13.2184 12.8568 13.2866 12.9409 13.3682 13.0108L20.3747 18.9992C20.5367 19.1381 20.7431 19.2143 20.9565 19.2141C21.1397 19.2142 21.3185 19.1582 21.4689 19.0536C21.6192 18.949 21.7339 18.8009 21.7974 18.6292C21.8609 18.4575 21.8702 18.2705 21.8241 18.0934C21.7779 17.9162 21.6784 17.7577 21.5392 17.6387Z" fill="url(#paint0_linear_103_14)"/>
</g>
<defs>
<linearGradient id="paint0_linear_103_14" x1="4.78697e-07" y1="3" x2="22" y2="19" gradientUnits="userSpaceOnUse">
<stop stop-color="#F12424"/>
<stop offset="1" stop-color="#2F2A2A"/>
</linearGradient>
<clipPath id="clip0_103_14">
<rect width="22.0157" height="22" fill="white"/>
</clipPath>
</defs>
</svg>
