<svg width="141" height="27" fill="none" xmlns="http://www.w3.org/2000/svg"><path d="M23.1.8V26h-5.796V5.552H5.928V26H.132V.8H23.1zm18.27 25.632c-2.615 0-4.98-.564-7.091-1.692-2.088-1.128-3.732-2.676-4.932-4.644-1.176-1.992-1.764-4.224-1.764-6.696 0-2.472.588-4.692 1.764-6.66 1.2-1.992 2.844-3.552 4.932-4.68C36.39.932 38.755.368 41.37.368c2.616 0 4.968.564 7.056 1.692 2.088 1.128 3.732 2.688 4.932 4.68 1.2 1.968 1.8 4.188 1.8 6.66 0 2.472-.6 4.704-1.8 6.696-1.2 1.968-2.844 3.516-4.932 4.644-2.088 1.128-4.44 1.692-7.056 1.692zm0-4.968c1.489 0 2.833-.336 4.033-1.008a7.363 7.363 0 002.808-2.88c.696-1.224 1.044-2.616 1.044-4.176s-.348-2.952-1.044-4.176a7.116 7.116 0 00-2.808-2.844c-1.2-.696-2.544-1.044-4.032-1.044s-2.832.348-4.032 1.044a7.361 7.361 0 00-2.844 2.844c-.672 1.224-1.008 2.616-1.008 4.176s.336 2.952 1.008 4.176a7.621 7.621 0 002.844 2.88c1.2.672 2.544 1.008 4.032 1.008zm30.197 4.968c-2.567 0-4.895-.552-6.983-1.656-2.065-1.128-3.697-2.676-4.897-4.644-1.175-1.992-1.764-4.236-1.764-6.732 0-2.496.588-4.728 1.764-6.696a12.485 12.485 0 014.897-4.644C66.67.932 69.01.368 71.603.368c2.183 0 4.151.384 5.903 1.152 1.776.768 3.264 1.872 4.465 3.312l-3.744 3.456c-1.704-1.968-3.816-2.952-6.337-2.952-1.56 0-2.952.348-4.175 1.044a7.293 7.293 0 00-2.88 2.844c-.672 1.224-1.008 2.616-1.008 4.176s.335 2.952 1.007 4.176a7.545 7.545 0 002.88 2.88c1.224.672 2.617 1.008 4.176 1.008 2.52 0 4.632-.996 6.337-2.988l3.744 3.456a11.67 11.67 0 01-4.465 3.348c-1.776.768-3.756 1.152-5.94 1.152zM104.71 7.856a19.333 19.333 0 00-6.948-2.412V26H91.93V5.444c-2.472.36-4.8 1.164-6.984 2.412L82.965 3.5a21.527 21.527 0 015.616-2.34 24.48 24.48 0 016.228-.792c2.16 0 4.248.264 6.264.792 2.04.528 3.912 1.308 5.616 2.34l-1.98 4.356zm17.45.54c3.024 0 5.412.78 7.164 2.34 1.776 1.56 2.664 3.744 2.664 6.552 0 2.928-.984 5.196-2.952 6.804-1.968 1.608-4.764 2.412-8.388 2.412-3.576 0-6.288-.804-8.136-2.412-1.848-1.608-2.772-3.972-2.772-7.092V.8h5.76v9.072c2.28-.984 4.5-1.476 6.66-1.476zM140.915.8V26h-5.76V.8h5.76zm-20.016 21.168c1.656 0 2.94-.396 3.852-1.188.912-.792 1.368-1.896 1.368-3.312 0-1.464-.492-2.592-1.476-3.384-.96-.816-2.244-1.224-3.852-1.224-.888 0-1.8.144-2.736.432a9.155 9.155 0 00-2.556 1.152v2.412c0 1.632.468 2.892 1.404 3.78.936.888 2.268 1.332 3.996 1.332z" fill="url(#paint0_linear_166_93)"/><path d="M23.1.8h1v-1h-1v1zm0 25.2v1h1v-1h-1zm-5.796 0h-1v1h1v-1zm0-20.448h1v-1h-1v1zm-11.376 0v-1h-1v1h1zm0 20.448v1h1v-1h-1zM.132 26h-1v1h1v-1zm0-25.2v-1h-1v1h1zM22.1.8V26h2V.8h-2zm1 24.2h-5.796v2H23.1v-2zm-4.796 1V5.552h-2V26h2zm-1-21.448H5.928v2h11.376v-2zm-12.376 1V26h2V5.552h-2zm1 19.448H.132v2h5.796v-2zm-4.796 1V.8h-2V26h2zm-1-24.2H23.1v-2H.132v2zm34.147 22.94l-.476.88.005.002.47-.882zm-4.932-4.644l-.861.508.003.006.004.007.854-.521zm0-13.356l-.857-.516-.002.003.859.513zm4.932-4.68l-.471-.882-.005.002.476.88zm19.08 4.68l-.857.516.003.005.854-.521zm0 13.356l.854.52.002-.004-.856-.516zm-4.932 4.644l.475.88-.475-.88zm-3.024-4.284l.488.872.007-.003.007-.004-.502-.865zm2.808-2.88l-.87-.494-.003.006-.004.007.877.481zm0-8.352l-.877.481.004.007.004.006.869-.494zM45.403 6.38l-.502.865.007.004.006.004.489-.873zm-8.064 0l.488.873.007-.004.007-.004-.502-.865zm-2.844 2.844l-.87-.494-.003.006-.004.007.877.481zm0 8.352l-.877.481.004.007.004.006.869-.494zm2.844 2.88l-.502.865.007.004.006.003.489-.872zm4.032 4.976c-2.467 0-4.667-.53-6.621-1.574l-.942 1.764c2.27 1.212 4.798 1.81 7.563 1.81v-2zm-6.617-1.572c-1.937-1.046-3.448-2.472-4.553-4.285l-1.708 1.042c1.295 2.123 3.072 3.793 5.31 5.003l.951-1.76zm-4.546-4.272c-1.079-1.828-1.625-3.882-1.625-6.188h-2c0 2.638.63 5.048 1.903 7.204l1.722-1.016zM28.583 13.4c0-2.306.546-4.346 1.622-6.147l-1.717-1.026c-1.276 2.135-1.905 4.535-1.905 7.173h2zm1.62-6.144C31.31 5.42 32.82 3.985 34.754 2.94l-.95-1.76c-2.242 1.211-4.02 2.896-5.314 5.044l1.713 1.032zm4.547-4.314c1.954-1.043 4.154-1.574 6.62-1.574v-2c-2.764 0-5.292.597-7.562 1.81l.942 1.764zm6.62-1.574c2.468 0 4.654.53 6.582 1.572l.95-1.76C46.654-.035 44.135-.632 41.371-.632v2zm6.582 1.572c1.934 1.045 3.445 2.48 4.55 4.316l1.713-1.032c-1.294-2.148-3.07-3.833-5.313-5.044l-.95 1.76zm4.553 4.32c1.097 1.8 1.654 3.838 1.654 6.14h2c0-2.642-.644-5.044-1.946-7.18l-1.708 1.04zm1.654 6.14c0 2.302-.556 4.354-1.657 6.18l1.713 1.032c1.3-2.158 1.944-4.57 1.944-7.212h-2zm-1.654 6.175c-1.105 1.813-2.616 3.239-4.553 4.285l.95 1.76c2.24-1.21 4.016-2.88 5.31-5.003l-1.707-1.042zm-4.553 4.285c-1.928 1.041-4.114 1.572-6.581 1.572v2c2.764 0 5.283-.598 7.531-1.812l-.95-1.76zm-6.581-1.396c1.645 0 3.16-.373 4.52-1.136l-.977-1.744c-1.038.581-2.212.88-3.543.88v2zm4.534-1.143a8.363 8.363 0 003.182-3.264l-1.753-.962a6.363 6.363 0 01-2.433 2.496l1.004 1.73zm3.175-3.25c.79-1.391 1.175-2.957 1.175-4.671h-2c0 1.406-.312 2.624-.913 3.682l1.738.988zm1.175-4.671c0-1.714-.384-3.28-1.175-4.67l-1.738.988c.6 1.058.913 2.276.913 3.682h2zm-1.168-4.657a8.116 8.116 0 00-3.196-3.236l-.977 1.746a6.117 6.117 0 012.42 2.452l1.753-.962zm-3.182-3.228c-1.364-.79-2.883-1.179-4.534-1.179v2c1.325 0 2.494.308 3.53.909l1.004-1.73zM41.37 4.336c-1.651 0-3.17.388-4.534 1.179l1.004 1.73c1.036-.601 2.205-.909 3.53-.909v-2zm-4.52 1.171a8.36 8.36 0 00-3.225 3.223l1.738.988a6.362 6.362 0 012.463-2.465l-.977-1.746zm-3.233 3.236c-.762 1.388-1.131 2.949-1.131 4.657h2c0-1.412.302-2.635.884-3.695l-1.753-.962zm-1.13 4.657c0 1.708.37 3.27 1.131 4.657l1.753-.962c-.582-1.06-.884-2.283-.884-3.695h-2zm1.139 4.67a8.62 8.62 0 003.211 3.251l1.004-1.73a6.622 6.622 0 01-2.477-2.51l-1.738.99zm3.224 3.258c1.362.763 2.876 1.136 4.52 1.136v-2c-1.33 0-2.504-.299-3.543-.88l-.977 1.744zm27.733 3.448l-.48.878.013.006.468-.884zm-4.895-4.644l-.862.508.004.006.004.007.853-.521zm0-13.428l-.857-.516-.002.003.858.513zm4.895-4.644l.472.882.004-.002-.475-.88zm12.924-.54l-.401.916.005.002.396-.918zm4.465 3.312l.678.735.698-.645-.608-.73-.768.64zm-3.744 3.456l-.756.655.675.78.759-.7-.678-.735zM67.716 6.38l.48.877.007-.004.007-.004-.494-.869zm-2.88 2.844l-.87-.494-.004.006-.003.007.876.481zm0 8.352l-.877.481.003.007.004.006.87-.494zm2.88 2.88l-.495.87.007.003.006.004.482-.877zm10.512-1.98l.678-.735-.763-.704-.675.789.76.65zm3.744 3.456l.773.634.598-.73-.693-.639-.678.735zm-4.465 3.348l-.396-.918.396.918zm-5.94.152c-2.42 0-4.584-.519-6.516-1.54l-.935 1.768c2.245 1.187 4.735 1.772 7.451 1.772v-2zm-6.504-1.534c-1.913-1.045-3.415-2.471-4.522-4.287l-1.707 1.042c1.293 2.12 3.055 3.79 5.27 5l.96-1.755zm-4.514-4.274c-1.078-1.826-1.626-3.892-1.626-6.224h-2c0 2.66.63 5.082 1.903 7.24l1.723-1.016zM58.923 13.4c0-2.332.548-4.384 1.623-6.183l-1.717-1.026c-1.277 2.137-1.906 4.549-1.906 7.209h2zm1.621-6.18a11.485 11.485 0 014.511-4.278l-.943-1.764a13.484 13.484 0 00-5.281 5.01l1.713 1.032zm4.515-4.28c1.929-1.042 4.103-1.572 6.544-1.572v-2c-2.742 0-5.248.598-7.495 1.812l.95 1.76zm6.544-1.572c2.066 0 3.894.363 5.503 1.068L77.91.604c-1.895-.83-4.003-1.236-6.306-1.236v2zm5.508 1.07c1.637.708 2.996 1.719 4.092 3.034l1.537-1.28c-1.304-1.565-2.92-2.762-4.836-3.59l-.793 1.836zm4.182 1.66L77.55 7.552l1.357 1.47 3.744-3.456-1.357-1.47zm-2.31 3.535c-1.886-2.179-4.27-3.297-7.092-3.297v2c2.22 0 4.06.85 5.58 2.607l1.513-1.31zm-7.092-3.297c-1.714 0-3.28.384-4.67 1.175l.989 1.738c1.057-.601 2.276-.913 3.681-.913v-2zm-4.657 1.167a8.293 8.293 0 00-3.268 3.227l1.739.988a6.294 6.294 0 012.492-2.461l-.963-1.754zm-3.275 3.24c-.762 1.388-1.132 2.949-1.132 4.657h2c0-1.412.303-2.635.885-3.695l-1.753-.962zM62.827 13.4c0 1.708.37 3.27 1.132 4.657l1.753-.962c-.582-1.06-.885-2.283-.885-3.695h-2zm1.14 4.67a8.546 8.546 0 003.254 3.255l.989-1.738a6.546 6.546 0 01-2.505-2.505l-1.739.988zm3.267 3.263c1.388.762 2.95 1.131 4.657 1.131v-2c-1.411 0-2.634-.303-3.694-.885l-.963 1.754zm4.657 1.131c2.826 0 5.211-1.134 7.096-3.338l-1.52-1.3c-1.522 1.78-3.36 2.638-5.576 2.638v2zm5.658-3.253l3.744 3.456 1.357-1.47-3.744-3.456-1.357 1.47zm3.65 2.087a10.669 10.669 0 01-4.088 3.064l.793 1.836a12.67 12.67 0 004.84-3.632l-1.546-1.268zm-4.088 3.064c-1.636.707-3.478 1.07-5.544 1.07v2c2.304 0 4.421-.405 6.337-1.234l-.793-1.836zm27.598-16.506l-.501.866.955.551.456-1.003-.91-.414zm-6.948-2.412l.144-.99-1.144-.166v1.156h1zm0 20.556v1h1v-1h-1zm-5.832 0h-1v1h1v-1zm0-20.556h1V4.288l-1.145.166.145.99zm-6.984 2.412l-.91.414.453.999.953-.545-.496-.868zM82.965 3.5l-.513-.859-.768.459.37.814.91-.414zm5.616-2.34l-.254-.967.254.967zm12.492 0l-.254.967.003.001.251-.968zm5.616 2.34l.91.414.368-.81-.76-.46-.518.856zm-1.48 3.49a20.334 20.334 0 00-7.304-2.536l-.288 1.98a18.332 18.332 0 016.591 2.288l1.001-1.732zm-8.448-1.546V26h2V5.444h-2zm1 19.556h-5.832v2h5.832v-2zm-4.832 1V5.444h-2V26h2zM91.784 4.454a20.671 20.671 0 00-7.336 2.534l.993 1.736a18.672 18.672 0 016.632-2.29l-.288-1.98zm-5.929 2.988l-1.98-4.356-1.82.828 1.98 4.356 1.82-.828zM83.477 4.36a20.526 20.526 0 015.357-2.232L88.327.193a22.527 22.527 0 00-5.875 2.448l1.025 1.718zm5.357-2.232a23.48 23.48 0 015.975-.759v-2c-2.22 0-4.381.274-6.482.825l.507 1.934zm5.975-.759a23.6 23.6 0 016.01.76l.507-1.935a25.622 25.622 0 00-6.517-.825v2zm6.013.76c1.951.505 3.732 1.249 5.349 2.227l1.036-1.71c-1.792-1.086-3.755-1.902-5.884-2.453l-.501 1.936zm4.956.958l-1.98 4.356 1.821.828 1.98-4.356-1.821-.828zm23.545 7.65l-.665.747.005.004.66-.751zm-.288 13.356l-.633-.774.633.774zm-16.524 0l.656-.754-.656.754zM109.739.8v-1h-1v1h1zm5.76 0h1v-1h-1v1zm0 9.072h-1v1.52l1.396-.602-.396-.918zM140.915.8h1v-1h-1v1zm0 25.2v1h1v-1h-1zm-5.76 0h-1v1h1v-1zm0-25.2v-1h-1v1h1zm-10.404 19.98l-.656-.755.656.755zm-.108-6.696l-.648.762.011.009.01.008.627-.779zm-6.588-.792l.272.962.011-.003.011-.003-.294-.956zm-2.556 1.152l-.549-.836-.451.296v.54h1zm6.66-5.048c2.852 0 4.978.733 6.499 2.087l1.33-1.494c-1.983-1.766-4.633-2.593-7.829-2.593v2zm6.504 2.091c1.519 1.335 2.324 3.221 2.324 5.801h2c0-3.036-.971-5.518-3.004-7.303l-1.32 1.502zm2.324 5.801c0 2.679-.886 4.642-2.585 6.03l1.266 1.548c2.237-1.828 3.319-4.401 3.319-7.578h-2zm-2.585 6.03c-1.727 1.41-4.265 2.186-7.755 2.186v2c3.758 0 6.812-.833 9.021-2.638l-1.266-1.548zm-7.755 2.186c-3.443 0-5.881-.776-7.48-2.166l-1.312 1.508c2.098 1.826 5.083 2.658 8.792 2.658v-2zm-7.48-2.166c-1.572-1.369-2.428-3.422-2.428-6.338h-2c0 3.324.993 5.999 3.116 7.846l1.312-1.508zM110.739 17V.8h-2V17h2zm-1-15.2h5.76v-2h-5.76v2zm4.76-1v9.072h2V.8h-2zm1.396 9.99c2.174-.938 4.259-1.394 6.264-1.394v-2c-2.315 0-4.67.528-7.056 1.558l.792 1.836zM139.915.8V26h2V.8h-2zm1 24.2h-5.76v2h5.76v-2zm-4.76 1V.8h-2V26h2zm-1-24.2h5.76v-2h-5.76v2zm-14.256 21.168c1.807 0 3.356-.433 4.508-1.433l-1.312-1.51c-.672.584-1.691.943-3.196.943v2zm4.508-1.433c1.169-1.015 1.712-2.416 1.712-4.067h-2c0 1.181-.369 1.988-1.024 2.557l1.312 1.51zm1.712-4.067c0-1.713-.59-3.15-1.849-4.163l-1.254 1.558c.709.57 1.103 1.39 1.103 2.605h2zm-1.828-4.146c-1.186-1.008-2.722-1.462-4.5-1.462v2c1.438 0 2.471.362 3.204.986l1.296-1.524zm-4.5-1.462c-.997 0-2.008.162-3.03.476l.588 1.912a8.282 8.282 0 012.442-.388v-2zm-3.007.47c-1.029.29-1.975.715-2.834 1.278l1.098 1.672a8.145 8.145 0 012.279-1.026l-.543-1.925zm-3.285 2.114v2.412h2v-2.412h-2zm0 2.412c0 1.83.531 3.381 1.716 4.505l1.376-1.45c-.687-.652-1.092-1.62-1.092-3.055h-2zm1.716 4.505c1.177 1.118 2.789 1.607 4.684 1.607v-2c-1.561 0-2.613-.399-3.308-1.058l-1.376 1.451z" fill="url(#paint1_linear_166_93)"/><defs><linearGradient id="paint0_linear_166_93" x1="-3" y1="9.207" x2="33.995" y2="4.896" gradientUnits="userSpaceOnUse"><stop stop-color="#58C49E"/><stop offset="1" stop-color="#EECE25"/></linearGradient><linearGradient id="paint1_linear_166_93" x1="-1.5" y1="11.5" x2="141" y2="11.5" gradientUnits="userSpaceOnUse"><stop stop-color="#56E9AB"/><stop offset="1" stop-color="#D5C054"/></linearGradient></defs></svg>