<svg width="28" height="24" viewBox="0 0 28 24" fill="none" xmlns="http://www.w3.org/2000/svg">
<path d="M26.6012 0.527719C26.2878 0.264677 25.9087 0.0918571 25.5045 0.027801C25.1003 -0.0362551 24.6863 0.0108704 24.3068 0.164121L1.15132 9.42577C0.813779 9.56588 0.525345 9.80279 0.322434 10.1066C0.119522 10.4104 0.0112305 10.7674 0.0112305 11.1327C0.0112305 11.4979 0.119522 11.855 0.322434 12.1588C0.525345 12.4625 0.813779 12.6994 1.15132 12.8396L2.64718 13.4557C2.89382 13.5599 3.17178 13.5621 3.42003 13.4617C3.66827 13.3614 3.86652 13.1667 3.97122 12.9204C4.02258 12.7977 4.04921 12.6661 4.04956 12.5332C4.04992 12.4002 4.024 12.2685 3.97329 12.1455C3.92258 12.0226 3.84808 11.9109 3.75407 11.8168C3.66005 11.7227 3.54837 11.6481 3.42543 11.5973L2.31364 11.1428L25.0649 2.05281C25.0998 2.03138 25.1401 2.02004 25.1811 2.02004C25.2221 2.02004 25.2624 2.03138 25.2973 2.05281C25.3303 2.0808 25.3552 2.11711 25.3694 2.15795C25.3836 2.1988 25.3867 2.2427 25.3782 2.28511L21.2241 21.6568C21.2105 21.7258 21.1791 21.79 21.133 21.8432C21.0869 21.8963 21.0278 21.9365 20.9614 21.9598C20.8962 21.9856 20.8253 21.9937 20.756 21.983C20.6867 21.9723 20.6216 21.9434 20.5672 21.8992L12.4815 15.5968L20.3954 7.60778C20.5644 7.43251 20.6644 7.20212 20.677 6.95901C20.6896 6.7159 20.6139 6.47644 20.4638 6.28468C20.3137 6.09292 20.0994 5.96178 19.8603 5.91539C19.6211 5.869 19.3733 5.91047 19.1623 6.03219L7.55926 12.9002C7.43039 12.9584 7.31517 13.0429 7.22107 13.1484C7.12696 13.2539 7.05605 13.378 7.01293 13.5126C6.9698 13.6471 6.95543 13.7893 6.97073 13.9298C6.98603 14.0703 7.03066 14.206 7.10174 14.3282C7.17282 14.4503 7.26877 14.5562 7.38338 14.639C7.49799 14.7218 7.62872 14.7797 7.7671 14.8088C7.90548 14.838 8.04845 14.8377 8.18675 14.8082C8.32505 14.7787 8.4556 14.7205 8.56998 14.6373L13.4517 11.7589L11.0766 14.1727C10.8593 14.3768 10.6898 14.6263 10.5804 14.9034C10.471 15.1806 10.4242 15.4785 10.4435 15.7758C10.4629 16.0731 10.5478 16.3624 10.6921 16.6231C10.8365 16.8838 11.0368 17.1093 11.2787 17.2835L19.3644 23.495C19.79 23.8232 20.3126 24.0008 20.8502 24C21.1364 23.9979 21.4202 23.9467 21.6891 23.8485C22.0752 23.71 22.4192 23.4747 22.6882 23.1652C22.9572 22.8558 23.1422 22.4824 23.2254 22.081L27.3491 2.72951C27.4366 2.32923 27.4132 1.91268 27.2814 1.52471C27.1496 1.13673 26.9144 0.792032 26.6012 0.527719Z" fill="white"/>
</svg>
