<svg width="27" height="26" viewBox="0 0 27 26" fill="none" xmlns="http://www.w3.org/2000/svg">
<path d="M18.6317 16.7917C18.6317 17.2792 18.2254 17.6854 17.7379 17.6854H9.39627C8.90877 17.6854 8.50252 17.2792 8.50252 16.7917C8.50252 16.3042 8.90877 15.8979 9.39627 15.8979H17.7379C18.2254 15.8979 18.6317 16.3042 18.6317 16.7917ZM8.51294 10.1021H14.5129C15.0004 10.1021 15.5129 9.69583 15.5129 9.20833C15.5129 8.72083 15.0004 8.31458 14.5129 8.31458H8.51294C8.02544 8.31458 7.51294 8.72083 7.51294 9.20833C7.51294 9.69583 8.02544 10.1021 8.51294 10.1021ZM26.5129 11V17.0625C26.5129 21.9917 22.4775 26 17.5754 26H9.45044C4.52127 26 0.512939 21.9917 0.512939 17.0896V8.9375C0.512939 4.84792 3.51294 1 7.28377 0.270833C8.01502 0.08125 9.25461 0 10.0129 0H13.5129C18.3067 0 22.2338 3.76458 22.5046 8.45H23.6421C25.2129 8.45 26.5129 9.42917 26.5129 11ZM24.5129 12C24.5129 11 24.4879 10.5 23.5129 10.5H20.5129V8.45C20.0129 4.5 17.7379 2.3125 13.4046 2H10.0129C9.49419 2 7.93377 2.3375 7.28377 2.5C4.6024 3.17034 3.01294 5.5 2.51294 8.9375V17.0896C2.51294 21.3958 5.14419 24 9.45044 24H17.5754C21.8817 24 24.5129 21.3687 24.5129 17.0625V12Z" fill="white"/>
</svg>
